<!DOCTYPE svg PUBLIC "-//W3C//DTD SVG 1.1//EN" "http://www.w3.org/Graphics/SVG/1.1/DTD/svg11.dtd">
<!-- Uploaded to: SVG Repo, www.svgrepo.com, Transformed by: SVG Repo Mixer Tools -->
<svg width="64px" height="64px" viewBox="0 0 64 64" id="Flat" xmlns="http://www.w3.org/2000/svg" fill="#000000">
<g id="SVGRepo_bgCarrier" stroke-width="0"/>
<g id="SVGRepo_tracerCarrier" stroke-linecap="round" stroke-linejoin="round"/>
<g id="SVGRepo_iconCarrier">
<rect height="48" rx="2" ry="2" style="fill:#c1272d" width="58" x="3" y="8"/>
<rect height="6" style="fill:#ffcd62" width="58" x="3" y="29"/>
<rect height="48" style="fill:#ffcd62" width="6" x="29" y="8"/>
<path d="M32,20.686h0A8,8,0,0,0,32,32h0a8,8,0,0,0,0-11.314Z" style="fill:#ef4037"/>
<path d="M32,32h0a8,8,0,0,1-11.314,0h0A8,8,0,0,1,32,32Z" style="fill:#ef4037"/>
<path d="M43.314,32h0A8,8,0,0,1,32,32h0a8,8,0,0,1,11.314,0Z" style="fill:#ef4037"/>
<path d="M32,32h0a8,8,0,0,0,0,11.314h0A8,8,0,0,0,32,32Z" style="fill:#ef4037"/>
<path d="M40,24h0a0,0,0,0,1,0,0v0a8,8,0,0,1-8,8h0a0,0,0,0,1,0,0v0A8,8,0,0,1,40,24Z" style="fill:#ffac00"/>
<path d="M24,24h0a8,8,0,0,1,8,8v0a0,0,0,0,1,0,0h0a8,8,0,0,1-8-8v0A0,0,0,0,1,24,24Z" style="fill:#ffac00"/>
<path d="M32,32h0a8,8,0,0,1,8,8v0a0,0,0,0,1,0,0h0a8,8,0,0,1-8-8v0A0,0,0,0,1,32,32Z" style="fill:#ffac00"/>
<path d="M32,32h0a0,0,0,0,1,0,0v0a8,8,0,0,1-8,8h0a0,0,0,0,1,0,0v0A8,8,0,0,1,32,32Z" style="fill:#ffac00"/>
</g>
</svg>